<svg width="150" height="150" viewBox="0 0 150 150" fill="none" xmlns="http://www.w3.org/2000/svg">
<g clip-path="url(#clip0_1_3)">
<path d="M92.816 143.667C130.959 133.447 153.652 94.4569 143.504 56.5807C141.122 47.6938 137.114 39.679 131.927 32.7155C127.332 34.9107 122.543 37.0746 117.494 39.1098C108.59 42.699 99.8786 45.6434 91.8074 47.8758C67.594 54.5734 53.9105 54.6849 51 47.5C47.3808 38.566 64.4841 21.379 96.3729 7.4195C83.7501 3.40657 69.8376 2.81485 56.0637 6.50557C17.9203 16.7261 -4.77273 55.7158 5.37615 93.5919C7.35225 100.967 10.4518 107.745 14.4051 113.821C21.1134 112.26 28.3321 110.926 35.8743 109.86C73.8984 104.486 105.873 108.416 107.302 118.653C108.375 126.33 91.9449 135.381 67.6268 141.688C64.3084 142.548 60.8048 143.362 57.2186 144.109C68.5452 146.873 80.7378 146.903 92.816 143.667Z" fill="#3A6496"/>
<mask id="mask0_1_3" style="mask-type:alpha" maskUnits="userSpaceOnUse" x="3" y="3" width="143" height="144">
<path d="M92.8762 143.581C131.019 133.36 153.713 94.3705 143.564 56.4944C141.182 47.6075 137.174 39.5927 131.987 32.6292C127.393 34.8244 122.603 36.9883 117.555 39.0235C108.65 42.6127 99.9388 45.5571 91.8675 47.7895C67.6542 54.4871 48.944 54.8518 46.0335 47.6669C42.4143 38.7329 64.5442 21.2927 96.4331 7.3332C83.8103 3.32026 69.8978 2.72855 56.1239 6.41927C17.9804 16.6398 -4.71255 55.6295 5.43633 93.5056C7.41243 100.88 10.5119 107.659 14.4653 113.735C21.1736 112.174 28.3923 110.84 35.9345 109.774C73.9585 104.399 105.934 108.33 107.362 118.567C108.435 126.244 92.0051 135.295 67.687 141.602C64.3686 142.462 60.8649 143.275 57.2788 144.023C68.6054 146.786 80.798 146.817 92.8762 143.581Z" fill="#3A6496"/>
</mask>
<g mask="url(#mask0_1_3)">
<path d="M55.5 41L104.5 124.5L48.5 144L122.5 153.5L177 160L187 38.5L165 -15.5L96 13.5L78.5 25L55.5 41Z" fill="#D9D9D9"/>
</g>
<path d="M127.988 108.392H146V42.2095H125.475L103.693 78.4425L81.9115 42.2095H61.177L103.693 108.392L127.988 71.1121V108.392Z" fill="#3A6496"/>
<path d="M4 108.183L46.5162 42L88.823 108.183H68.2979L46.5162 72.3687L24.7345 108.183H4Z" fill="white"/>
</g>
<defs>
<clipPath id="clip0_1_3">
<rect width="150" height="150" fill="white"/>
</clipPath>
</defs>
</svg>
