<svg width="151" height="151" viewBox="0 0 151 151" fill="none" xmlns="http://www.w3.org/2000/svg">
<path fillRule="evenodd" clipRule="evenodd" d="M75.3528 150.77C116.774 150.77 150.353 117.192 150.353 75.7704C150.353 34.3491 116.774 0.770447 75.3528 0.770447C33.9315 0.770447 0.352825 34.3491 0.352825 75.7704C0.352825 117.192 33.9315 150.77 75.3528 150.77ZM45.496 82.2254L45.456 85.3854V85.9854C45.4294 86.2254 45.4294 86.4521 45.456 86.6654C45.4827 86.7988 45.496 86.9321 45.496 87.0654L45.576 87.4654C45.576 87.6254 45.5894 87.7854 45.616 87.9454C45.6427 88.0788 45.6827 88.2121 45.736 88.3454C45.7627 88.3988 45.7894 88.4388 45.816 88.4654C45.8427 88.4921 45.8694 88.5321 45.896 88.5854C45.896 88.6654 45.936 88.7454 46.016 88.8254C46.1494 89.1454 46.376 89.4121 46.696 89.6254C47.336 89.9188 48.016 89.9854 48.736 89.8254C49.216 89.7454 49.5627 89.5988 49.776 89.3854C49.9094 89.2788 50.016 89.1721 50.096 89.0654C50.2027 88.9321 50.296 88.7988 50.376 88.6654C50.4294 88.5054 50.4694 88.3588 50.496 88.2254C50.5494 88.0654 50.6027 87.9188 50.656 87.7854C50.6827 87.6254 50.696 87.4921 50.696 87.3854C50.7227 87.2521 50.736 87.1454 50.736 87.0654V86.6654L50.976 65.9054V65.2254V64.7854C51.0027 64.6254 51.016 64.4521 51.016 64.2654C51.016 64.1054 51.0027 63.9454 50.976 63.7854C50.976 63.6254 50.9627 63.4521 50.936 63.2654C50.9094 63.1054 50.8694 62.9588 50.816 62.8254C50.7894 62.6654 50.7494 62.5054 50.696 62.3454C50.5627 62.0521 50.416 61.8388 50.256 61.7054C49.9894 61.4388 49.6827 61.2788 49.336 61.2254C49.176 61.1988 49.0027 61.1854 48.816 61.1854C48.656 61.1588 48.4694 61.1454 48.256 61.1454C47.856 61.1454 47.4427 61.2521 47.016 61.4654C46.6427 61.7321 46.3627 62.0521 46.176 62.4254C45.9094 62.9854 45.7627 63.5054 45.736 63.9854C45.736 64.2788 45.7227 64.5721 45.696 64.8654C45.696 65.1321 45.6827 65.3988 45.656 65.6654V65.8254C45.6027 66.7588 45.576 67.5988 45.576 68.3454V70.9054V73.7054C45.576 74.6121 45.5627 75.4921 45.536 76.3454L45.496 82.2254ZM56.707 82.2254L56.667 85.3854V85.9854C56.6403 86.2254 56.6403 86.4521 56.667 86.6654C56.6936 86.7988 56.707 86.9321 56.707 87.0654L56.787 87.4654C56.787 87.6254 56.8003 87.7854 56.827 87.9454C56.8536 88.0788 56.8936 88.2121 56.947 88.3454C56.9736 88.3988 57.0003 88.4388 57.027 88.4654C57.0536 88.4921 57.0803 88.5321 57.107 88.5854C57.107 88.6654 57.147 88.7454 57.227 88.8254C57.3603 89.1454 57.587 89.4121 57.907 89.6254C58.547 89.9188 59.227 89.9854 59.947 89.8254C60.427 89.7454 60.7736 89.5988 60.987 89.3854C61.1203 89.2788 61.227 89.1721 61.307 89.0654C61.4136 88.9321 61.507 88.7988 61.587 88.6654C61.6403 88.5054 61.6803 88.3588 61.707 88.2254C61.7603 88.0654 61.8136 87.9188 61.867 87.7854C61.8936 87.6254 61.907 87.4921 61.907 87.3854C61.9336 87.2521 61.947 87.1454 61.947 87.0654V86.6654L62.187 65.9054V65.2254V64.7854C62.2136 64.6254 62.227 64.4521 62.227 64.2654C62.227 64.1054 62.2136 63.9454 62.187 63.7854C62.187 63.6254 62.1736 63.4521 62.147 63.2654C62.1203 63.1054 62.0803 62.9588 62.027 62.8254C62.0003 62.6654 61.9603 62.5054 61.907 62.3454C61.7736 62.0521 61.627 61.8388 61.467 61.7054C61.2003 61.4388 60.8936 61.2788 60.547 61.2254C60.387 61.1988 60.2136 61.1854 60.027 61.1854C59.867 61.1588 59.6803 61.1454 59.467 61.1454C59.067 61.1454 58.6536 61.2521 58.227 61.4654C57.8536 61.7321 57.5736 62.0521 57.387 62.4254C57.1203 62.9854 56.9736 63.5054 56.947 63.9854C56.947 64.2788 56.9336 64.5721 56.907 64.8654C56.907 65.1321 56.8936 65.3988 56.867 65.6654V65.8254C56.8136 66.7588 56.787 67.5988 56.787 68.3454V70.9054V73.7054C56.787 74.6121 56.7736 75.4921 56.747 76.3454L56.707 82.2254ZM87.5563 63.6254C87.5563 63.2521 87.4097 62.8921 87.1163 62.5454C86.983 62.3588 86.8097 62.2121 86.5963 62.1054C86.383 61.9721 86.1563 61.8654 85.9163 61.7854C85.5963 61.6521 85.2763 61.5588 84.9563 61.5054C84.6363 61.4521 84.303 61.4121 83.9563 61.3854C82.4363 61.3321 80.903 61.3054 79.3563 61.3054C77.8363 61.2788 76.303 61.2788 74.7563 61.3054C73.823 61.3321 72.9297 61.3454 72.0763 61.3454H69.4363H68.7563C68.543 61.3454 68.3297 61.3588 68.1163 61.3854C67.6363 61.4388 67.2363 61.5188 66.9163 61.6254C66.703 61.6788 66.4763 61.7721 66.2363 61.9054C66.023 62.0121 65.863 62.1054 65.7563 62.1854C65.4097 62.3988 65.1963 62.6654 65.1163 62.9854C65.063 63.1188 65.0363 63.2654 65.0363 63.4254V63.9054C65.0363 64.3321 65.183 64.7188 65.4763 65.0654C65.7963 65.4121 66.2363 65.6654 66.7963 65.8254C67.0097 65.8788 67.2763 65.9321 67.5963 65.9854C67.943 66.0388 68.1963 66.0788 68.3563 66.1054C68.543 66.1321 68.8897 66.1588 69.3963 66.1854C69.903 66.2121 70.4363 66.2388 70.9963 66.2654H72.6363H73.6363V86.8254C73.6363 87.0921 73.6763 87.3454 73.7563 87.5854C73.783 87.8521 73.8763 88.1321 74.0363 88.4254C74.143 88.6654 74.3163 88.9054 74.5563 89.1454C74.7963 89.3321 75.143 89.4521 75.5963 89.5054C76.3163 89.6654 76.9697 89.5988 77.5563 89.3054C77.9297 89.0654 78.183 88.8121 78.3163 88.5454L78.4363 88.3054C78.4363 88.2521 78.4897 88.1721 78.5963 88.0654C78.6497 87.9321 78.6897 87.8121 78.7163 87.7054C78.743 87.5721 78.7563 87.4388 78.7563 87.3054C78.783 86.9854 78.823 86.7054 78.8763 86.4654C78.903 86.3321 78.9163 86.2254 78.9163 86.1454V85.8254C78.8897 85.6921 78.8763 85.4921 78.8763 85.2254V82.1854V76.4254C78.903 74.7721 78.9163 73.3188 78.9163 72.0654C78.943 70.8121 78.9563 69.7188 78.9563 68.7854C78.9563 67.8254 78.943 66.9321 78.9163 66.1054H80.2763C80.7563 66.1054 81.2363 66.0921 81.7163 66.0654H83.7563H84.3563C84.543 66.0654 84.7297 66.0521 84.9163 66.0254C85.1297 65.9721 85.3297 65.9321 85.5163 65.9054C85.703 65.8788 85.8897 65.8388 86.0763 65.7854C86.4497 65.7054 86.743 65.5854 86.9563 65.4254C87.223 65.1588 87.3963 64.8788 87.4763 64.5854C87.503 64.4521 87.5163 64.3054 87.5163 64.1454C87.543 63.9588 87.5563 63.7854 87.5563 63.6254ZM112.859 67.9854C112.833 66.2788 112.739 64.7854 112.579 63.5054C112.473 63.0521 112.299 62.6521 112.059 62.3054C111.846 62.0121 111.566 61.7454 111.219 61.5054C110.873 61.2388 110.419 61.0921 109.859 61.0654C109.166 61.0654 108.619 61.1988 108.219 61.4654C107.819 61.7321 107.513 62.0388 107.299 62.3854C107.059 62.7854 106.913 63.2254 106.859 63.7054C106.886 64.7988 106.899 66.0254 106.899 67.3854C106.899 68.7454 106.873 70.1321 106.819 71.5454C106.766 72.9588 106.699 74.3454 106.619 75.7054C106.539 77.0388 106.446 78.2121 106.339 79.2254C106.286 79.5454 106.206 79.8921 106.099 80.2654C105.993 80.6388 105.859 80.9721 105.699 81.2654C105.299 82.0654 104.753 82.6788 104.059 83.1054C103.393 83.5054 102.726 83.7454 102.059 83.8254C101.339 83.9054 100.619 83.8388 99.8995 83.6254C99.1795 83.4121 98.5528 82.9188 98.0195 82.1454C97.4328 81.2921 97.0595 80.2254 96.8995 78.9454C96.7395 77.6388 96.6595 76.1854 96.6595 74.5854C96.6595 74.1588 96.6728 73.5054 96.6995 72.6254C96.7261 71.7454 96.7395 70.7854 96.7395 69.7454C96.7661 68.6788 96.7661 67.5854 96.7395 66.4654C96.7395 65.3454 96.7128 64.3454 96.6595 63.4654C96.6328 63.1988 96.5928 62.9588 96.5395 62.7454C96.4861 62.5321 96.3928 62.3188 96.2595 62.1054C95.9928 61.7588 95.6461 61.4921 95.2195 61.3054C94.7928 61.1188 94.3395 61.0254 93.8595 61.0254C93.4061 61.0254 92.9661 61.1054 92.5395 61.2654C92.1128 61.4254 91.7795 61.6788 91.5395 62.0254C91.3261 62.3454 91.1661 62.7054 91.0595 63.1054C90.9528 63.4788 90.8728 63.8788 90.8195 64.3054C90.7928 64.7054 90.7795 65.1188 90.7795 65.5454V66.6654C90.7528 67.1988 90.7395 67.8521 90.7395 68.6254V71.0254V73.3854C90.7661 74.1321 90.7795 74.7588 90.7795 75.2654C90.7795 76.3588 90.8061 77.4254 90.8595 78.4654C90.9395 79.5054 91.1128 80.5188 91.3795 81.5054C91.6461 82.4654 92.0195 83.3854 92.4995 84.2654C92.9795 85.1454 93.6195 85.9721 94.4195 86.7454C95.4861 87.7588 96.6461 88.5054 97.8995 88.9854C99.1795 89.4388 100.526 89.6388 101.939 89.5854C102.739 89.5588 103.539 89.4388 104.339 89.2254C105.166 89.0121 105.939 88.7188 106.659 88.3454C107.406 87.9454 108.086 87.4788 108.699 86.9454C109.313 86.3854 109.833 85.7454 110.259 85.0254C110.553 84.5454 110.819 84.0121 111.059 83.4254C111.326 82.8121 111.553 82.2254 111.739 81.6654C112.006 80.7321 112.233 79.5054 112.419 77.9854C112.606 76.4388 112.726 74.8121 112.779 73.1054C112.859 71.3721 112.886 69.6654 112.859 67.9854Z" fill="#2F99FB" />
</svg>
